<svg width="30" height="30" viewBox="0 0 30 30" fill="none" xmlns="http://www.w3.org/2000/svg">
<circle cx="15" cy="15" r="14.5" stroke="#F0F0F0"/>
<path d="M10 22C10 20.5855 10.5268 19.229 11.4645 18.2288C12.4021 17.2286 13.6739 16.6667 15 16.6667C16.3261 16.6667 17.5979 17.2286 18.5355 18.2288C19.4732 19.229 20 20.5855 20 22H18.75C18.75 20.9391 18.3549 19.9217 17.6517 19.1716C16.9484 18.4214 15.9946 18 15 18C14.0054 18 13.0516 18.4214 12.3483 19.1716C11.6451 19.9217 11.25 20.9391 11.25 22H10ZM15 16C12.9281 16 11.25 14.21 11.25 12C11.25 9.79 12.9281 8 15 8C17.0719 8 18.75 9.79 18.75 12C18.75 14.21 17.0719 16 15 16ZM15 14.6667C16.3812 14.6667 17.5 13.4733 17.5 12C17.5 10.5267 16.3812 9.33333 15 9.33333C13.6187 9.33333 12.5 10.5267 12.5 12C12.5 13.4733 13.6187 14.6667 15 14.6667Z" fill="#F0F0F0"/>
</svg>
