<svg width="30" height="18" viewBox="0 0 30 18" fill="none" xmlns="http://www.w3.org/2000/svg">
<rect opacity="0.2" x="0.5" y="0.5" width="29" height="17" rx="1.5" stroke="#F0F0F0"/>
<path opacity="0.6" d="M5.66 12.016H7.664V5.836L5.66 7.264V6.04L7.688 4.6H8.816V12.016H10.46V13H5.66V12.016ZM14.4842 13.12C13.9882 13.12 13.5522 13.06 13.1762 12.94C12.8002 12.82 12.4842 12.656 12.2282 12.448C11.9802 12.24 11.7922 11.996 11.6642 11.716C11.5442 11.428 11.4842 11.116 11.4842 10.78C11.4842 10.3 11.6362 9.872 11.9402 9.496C12.2442 9.112 12.6922 8.84 13.2842 8.68C13.0682 8.608 12.8642 8.512 12.6722 8.392C12.4882 8.264 12.3242 8.116 12.1802 7.948C12.0362 7.78 11.9242 7.592 11.8442 7.384C11.7642 7.168 11.7242 6.94 11.7242 6.7C11.7242 6.388 11.7842 6.096 11.9042 5.824C12.0242 5.552 12.2002 5.32 12.4322 5.128C12.6642 4.928 12.9522 4.772 13.2962 4.66C13.6402 4.54 14.0362 4.48 14.4842 4.48C14.9322 4.48 15.3282 4.54 15.6722 4.66C16.0162 4.772 16.3042 4.928 16.5362 5.128C16.7682 5.32 16.9442 5.552 17.0642 5.824C17.1842 6.096 17.2442 6.388 17.2442 6.7C17.2442 7.18 17.0922 7.588 16.7882 7.924C16.4922 8.26 16.1242 8.512 15.6842 8.68C16.2842 8.88 16.7322 9.144 17.0282 9.472C17.3322 9.8 17.4842 10.236 17.4842 10.78C17.4842 11.116 17.4202 11.428 17.2922 11.716C17.1722 11.996 16.9842 12.24 16.7282 12.448C16.4802 12.656 16.1682 12.82 15.7922 12.94C15.4162 13.06 14.9802 13.12 14.4842 13.12ZM14.4842 12.112C14.8282 12.112 15.1202 12.076 15.3602 12.004C15.6002 11.924 15.7922 11.824 15.9362 11.704C16.0882 11.576 16.1962 11.428 16.2602 11.26C16.3242 11.084 16.3562 10.9 16.3562 10.708C16.3562 10.484 16.3082 10.28 16.2122 10.096C16.1242 9.912 15.9962 9.752 15.8282 9.616C15.6602 9.472 15.4602 9.36 15.2282 9.28C15.0042 9.192 14.7562 9.132 14.4842 9.1C14.2122 9.132 13.9602 9.192 13.7282 9.28C13.5042 9.36 13.3082 9.468 13.1402 9.604C12.9722 9.74 12.8402 9.904 12.7442 10.096C12.6562 10.28 12.6122 10.484 12.6122 10.708C12.6122 10.9 12.6442 11.084 12.7082 11.26C12.7722 11.428 12.8762 11.576 13.0202 11.704C13.1722 11.824 13.3682 11.924 13.6082 12.004C13.8482 12.076 14.1402 12.112 14.4842 12.112ZM14.4842 8.26C14.9642 8.196 15.3562 8.044 15.6602 7.804C15.9642 7.556 16.1162 7.208 16.1162 6.76C16.1162 6.352 15.9802 6.04 15.7082 5.824C15.4442 5.6 15.0362 5.488 14.4842 5.488C13.9242 5.488 13.5122 5.6 13.2482 5.824C12.9842 6.04 12.8522 6.352 12.8522 6.76C12.8522 7.208 13.0042 7.556 13.3082 7.804C13.6122 8.044 14.0042 8.196 14.4842 8.26ZM20.9204 9.172H18.7484V8.188H20.9204V5.98H21.9764V8.188H24.1484V9.172H21.9764V11.38H20.9204V9.172Z" fill="#F0F0F0"/>
</svg>
