<svg width="30" height="30" viewBox="0 0 30 30" fill="none" xmlns="http://www.w3.org/2000/svg">
<circle cx="15" cy="15" r="14.5" stroke="#F0F0F0"/>
<path d="M20.3333 22H9.66667C9.48986 22 9.32029 21.9263 9.19526 21.795C9.07024 21.6637 9 21.4857 9 21.3V8.7C9 8.51435 9.07024 8.3363 9.19526 8.20503C9.32029 8.07375 9.48986 8 9.66667 8H20.3333C20.5101 8 20.6797 8.07375 20.8047 8.20503C20.9298 8.3363 21 8.51435 21 8.7V21.3C21 21.4857 20.9298 21.6637 20.8047 21.795C20.6797 21.9263 20.5101 22 20.3333 22ZM19.6667 20.6V9.4H10.3333V20.6H19.6667ZM13 10.8V12.2C13 12.757 13.2107 13.2911 13.5858 13.6849C13.9609 14.0788 14.4696 14.3 15 14.3C15.5304 14.3 16.0391 14.0788 16.4142 13.6849C16.7893 13.2911 17 12.757 17 12.2V10.8H18.3333V12.2C18.3333 13.1283 17.9821 14.0185 17.357 14.6749C16.7319 15.3313 15.8841 15.7 15 15.7C14.1159 15.7 13.2681 15.3313 12.643 14.6749C12.0179 14.0185 11.6667 13.1283 11.6667 12.2V10.8H13Z" fill="#F0F0F0"/>
</svg>
