<svg width="11" height="14" viewBox="0 0 11 14" fill="none" xmlns="http://www.w3.org/2000/svg">
<path d="M0.6875 0H10.3125C10.4948 0 10.6697 0.0714504 10.7986 0.198633C10.9276 0.325815 11 0.498312 11 0.678175V13.6605C11.0001 13.7211 10.9837 13.7807 10.9525 13.8329C10.9213 13.8852 10.8765 13.9282 10.8227 13.9576C10.7689 13.9869 10.7082 14.0015 10.6467 13.9999C10.5853 13.9982 10.5254 13.9803 10.4734 13.948L5.5 10.8712L0.526625 13.9474C0.474628 13.9796 0.414829 13.9975 0.353445 13.9992C0.292061 14.0009 0.231334 13.9864 0.177578 13.9571C0.123821 13.9278 0.0789984 13.8848 0.0477694 13.8327C0.0165404 13.7805 4.56987e-05 13.7211 0 13.6605V0.678175C0 0.498312 0.072433 0.325815 0.201364 0.198633C0.330295 0.0714504 0.505164 0 0.6875 0ZM9.625 1.35635H1.375V11.822L5.5 9.27133L9.625 11.822V1.35635Z" fill="#F0F0F0"/>
</svg>
