<svg width="20" height="20" viewBox="0 0 20 20" fill="none" xmlns="http://www.w3.org/2000/svg">
<path d="M12.2222 17.7778H17.7778V2.22222H2.22222V17.7778H10V12.2222H7.77778V10H10V8.16222C10 6.67667 10.1556 6.13778 10.4444 5.59444C10.729 5.05687 11.1688 4.61743 11.7067 4.33333C12.1311 4.10556 12.6589 3.96889 13.5811 3.91C13.9467 3.88667 14.42 3.91556 15.0011 3.99889V6.11H14.4444C13.4256 6.11 13.0044 6.15778 12.7533 6.29222C12.6035 6.36929 12.4815 6.49127 12.4044 6.64111C12.2711 6.89222 12.2222 7.14111 12.2222 8.16111V10H15L14.4444 12.2222H12.2222V17.7778ZM1.11111 0H18.8889C19.1836 0 19.4662 0.117063 19.6746 0.325437C19.8829 0.533811 20 0.816426 20 1.11111V18.8889C20 19.1836 19.8829 19.4662 19.6746 19.6746C19.4662 19.8829 19.1836 20 18.8889 20H1.11111C0.816426 20 0.533811 19.8829 0.325437 19.6746C0.117063 19.4662 0 19.1836 0 18.8889V1.11111C0 0.816426 0.117063 0.533811 0.325437 0.325437C0.533811 0.117063 0.816426 0 1.11111 0Z" fill="#F0F0F0"/>
</svg>
