<svg width="76" height="15" viewBox="0 0 76 15" fill="none" xmlns="http://www.w3.org/2000/svg">
<path d="M0.4 -9.53674e-07H4V11.04H10V14H0.4V-9.53674e-07ZM12.0063 -9.53674e-07H15.6063V14H12.0063V-9.53674e-07ZM17.4031 -9.53674e-07H21.4031L24.5631 9.4L27.6031 -9.53674e-07H31.2031L26.2031 14H22.6031L17.4031 -9.53674e-07ZM32.8023 -9.53674e-07H43.0023V2.76H36.4023V5.5H42.4023V8.1H36.4023V11.24H43.0023V14H32.8023V-9.53674e-07ZM47.1023 14.26C46.569 14.26 46.1157 14.08 45.7423 13.72C45.3823 13.3467 45.2023 12.8933 45.2023 12.36C45.2023 11.8267 45.3823 11.38 45.7423 11.02C46.1157 10.6467 46.569 10.46 47.1023 10.46C47.6357 10.46 48.0823 10.6467 48.4423 11.02C48.8157 11.38 49.0023 11.8267 49.0023 12.36C49.0023 12.8933 48.8157 13.3467 48.4423 13.72C48.0823 14.08 47.6357 14.26 47.1023 14.26ZM52.9773 2.96H48.6773V-9.53674e-07H60.8773V2.96H56.5773V14H52.9773V2.96ZM61.8758 -9.53674e-07H65.8758L69.0358 9.4L72.0758 -9.53674e-07H75.6758L70.6758 14H67.0758L61.8758 -9.53674e-07Z" fill="#6FB1FC"/>
</svg>
