<svg width="10" height="14" viewBox="0 0 10 14" fill="none" xmlns="http://www.w3.org/2000/svg">
<path d="M7.23707 7L1.72434 3.05577V10.9442L7.23707 7ZM9.80807 7.38489L0.669908 13.9225C0.604991 13.9689 0.529572 13.9955 0.451685 13.9995C0.373797 14.0035 0.296357 13.9847 0.227613 13.9452C0.158868 13.9057 0.101395 13.847 0.0613122 13.7752C0.0212297 13.7034 4.0281e-05 13.6213 0 13.5376V0.462373C4.0281e-05 0.378694 0.0212297 0.296593 0.0613122 0.224816C0.101395 0.153038 0.158868 0.094271 0.227613 0.0547743C0.296357 0.0152777 0.373797 -0.00346992 0.451685 0.000528517C0.529572 0.00452696 0.604991 0.0311219 0.669908 0.0774802L9.80807 6.61511C9.86711 6.65735 9.91552 6.71459 9.949 6.78173C9.98248 6.84888 10 6.92385 10 7C10 7.07615 9.98248 7.15113 9.949 7.21827C9.91552 7.28541 9.86711 7.34265 9.80807 7.38489Z" fill="#F0F0F0"/>
</svg>
