<svg width="30" height="30" viewBox="0 0 30 30" fill="none" xmlns="http://www.w3.org/2000/svg">
<circle cx="15" cy="15" r="14.5" stroke="#F0F0F0"/>
<path d="M19.0482 18.0737L22 21.0248L21.0248 22L18.0737 19.0482C16.9757 19.9285 15.6099 20.4072 14.2026 20.4052C10.7788 20.4052 8 17.6265 8 14.2026C8 10.7788 10.7788 8 14.2026 8C17.6265 8 20.4052 10.7788 20.4052 14.2026C20.4072 15.6099 19.9285 16.9757 19.0482 18.0737ZM17.6657 17.5624C18.5404 16.6629 19.0289 15.4572 19.0269 14.2026C19.0269 11.5369 16.8677 9.37836 14.2026 9.37836C11.5369 9.37836 9.37836 11.5369 9.37836 14.2026C9.37836 16.8677 11.5369 19.0269 14.2026 19.0269C15.4572 19.0289 16.6629 18.5404 17.5624 17.6657L17.6657 17.5624Z" fill="#F0F0F0"/>
</svg>
