<svg width="14" height="10" viewBox="0 0 14 10" fill="none" xmlns="http://www.w3.org/2000/svg">
<path d="M10.1818 3.25L13.4992 0.96875C13.5469 0.93591 13.6028 0.916561 13.661 0.912813C13.7191 0.909065 13.7772 0.921063 13.8288 0.947497C13.8805 0.973931 13.9238 1.01379 13.954 1.06272C13.9841 1.11165 14.0001 1.16779 14 1.225V8.775C14.0001 8.83221 13.9841 8.88835 13.954 8.93728C13.9238 8.98621 13.8805 9.02607 13.8288 9.0525C13.7772 9.07894 13.7191 9.09093 13.661 9.08719C13.6028 9.08344 13.5469 9.06409 13.4992 9.03125L10.1818 6.75V9.375C10.1818 9.54076 10.1148 9.69973 9.99543 9.81694C9.87609 9.93415 9.71423 10 9.54545 10H0.636364C0.467589 10 0.305728 9.93415 0.186387 9.81694C0.0670452 9.69973 0 9.54076 0 9.375V0.625C0 0.45924 0.0670452 0.300269 0.186387 0.183058C0.305728 0.0658481 0.467589 0 0.636364 0H9.54545C9.71423 0 9.87609 0.0658481 9.99543 0.183058C10.1148 0.300269 10.1818 0.45924 10.1818 0.625V3.25ZM10.1818 5.22438L12.7273 6.97438V3.025L10.1818 4.775V5.22438ZM1.27273 1.25V8.75H8.90909V1.25H1.27273Z" fill="#F0F0F0"/>
</svg>
