<svg width="24" height="20" viewBox="0 0 24 20" fill="none" xmlns="http://www.w3.org/2000/svg">
<path d="M21.1272 3.74375C21.036 3.37125 20.7768 3.09 20.4804 3.00375C19.956 2.85 17.4 2.5 12 2.5C6.6 2.5 4.0464 2.85 3.5172 3.00375C3.2244 3.08875 2.9652 3.37 2.8728 3.74375C2.742 4.27375 2.4 6.495 2.4 10C2.4 13.505 2.742 15.725 2.8728 16.2575C2.964 16.6287 3.2232 16.91 3.5184 16.995C4.0464 17.15 6.6 17.5 12 17.5C17.4 17.5 19.9548 17.15 20.4828 16.9963C20.7756 16.9113 21.0348 16.63 21.1272 16.2562C21.258 15.7262 21.6 13.5 21.6 10C21.6 6.5 21.258 4.275 21.1272 3.74375ZM23.4516 3.1225C24 5.35 24 10 24 10C24 10 24 14.65 23.4516 16.8775C23.1468 18.1088 22.2552 19.0775 21.126 19.405C19.0752 20 12 20 12 20C12 20 4.9284 20 2.874 19.405C1.74 19.0725 0.8496 18.105 0.5484 16.8775C3.57628e-08 14.65 0 10 0 10C0 10 3.57628e-08 5.35 0.5484 3.1225C0.8532 1.89125 1.7448 0.9225 2.874 0.595C4.9284 -2.23517e-07 12 0 12 0C12 0 19.0752 -2.23517e-07 21.126 0.595C22.26 0.9275 23.1504 1.895 23.4516 3.1225ZM9.6 14.375V5.625L16.8 10L9.6 14.375Z" fill="#F0F0F0"/>
</svg>
